<svg width="300" height="150" viewBox="0 0 300 150" fill="none" xmlns="http://www.w3.org/2000/svg">
  <defs>
    <linearGradient id="g4" x1="0%" y1="0%" x2="100%" y2="100%">
      <stop offset="0%" style="stop-color:#10B981;stop-opacity:0.8" />
      <stop offset="100%" style="stop-color:#059669;stop-opacity:0.6" />
    </linearGradient>
  </defs>
  <rect width="300" height="150" fill="#ECFDF5"/>
  <path d="M150 30 L180 60 L180 100 Q180 120 160 130 L140 130 Q120 120 120 100 L120 60 Z" fill="url(#g4)"/>
  <path d="M150 40 L170 55 L170 90 Q170 105 155 113 L145 113 Q130 105 130 90 L130 55 Z" fill="white" opacity="0.9"/>
  <rect x="50" y="80" width="20" height="25" rx="2" fill="url(#g4)"/>
  <rect x="55" y="85" width="10" height="15" fill="white" opacity="0.9"/>
  <rect x="230" y="75" width="20" height="25" rx="2" fill="url(#g4)"/>
  <rect x="235" y="80" width="10" height="15" fill="white" opacity="0.9"/>
</svg>
